<?xml version="1.0" standalone="no"?>
<!DOCTYPE svg PUBLIC "-//W3C//DTD SVG 20010904//EN"
 "http://www.w3.org/TR/2001/REC-SVG-20010904/DTD/svg10.dtd">
<svg version="1.0" xmlns="http://www.w3.org/2000/svg"
 width="1280.000000pt" height="832.000000pt" viewBox="0 0 1280.000000 832.000000"
 preserveAspectRatio="xMidYMid meet">

<g transform="translate(0.000000,832.000000) scale(0.100000,-0.100000)"
fill="#000000" stroke="none">
<path d="M0 4160 l0 -4160 6400 0 6400 0 0 4160 0 4160 -6400 0 -6400 0 0
-4160z m10371 3804 c160 -47 270 -190 270 -354 0 -83 -6 -111 -44 -183 -37
-70 -100 -130 -175 -165 -49 -23 -70 -27 -152 -27 -82 0 -103 4 -152 27 -100
47 -179 135 -208 236 l-13 42 -368 0 c-235 0 -378 -4 -396 -11 -38 -14 -90
-65 -116 -114 -20 -37 -22 -57 -25 -265 l-3 -225 519 0 518 0 41 -27 c89 -59
133 -152 133 -282 l0 -83 41 -7 c59 -9 130 -49 182 -101 182 -181 130 -483
-101 -597 -62 -31 -74 -33 -167 -33 -89 0 -106 3 -157 28 -148 73 -239 249
-208 403 33 164 147 274 316 306 l66 13 -4 87 c-4 61 -12 100 -28 132 -25 53
-72 103 -107 117 -14 5 -642 9 -1519 9 l-1494 0 0 -596 c0 -486 2 -595 13
-591 26 10 176 -12 250 -37 43 -14 106 -44 142 -65 54 -33 65 -37 65 -22 0 30
57 99 102 123 42 23 49 23 478 28 432 5 435 5 472 28 38 23 78 77 78 104 0 11
-16 17 -56 21 -198 20 -354 237 -314 433 25 119 98 217 200 269 271 137 584
-92 538 -393 -22 -145 -150 -281 -289 -307 -32 -6 -39 -13 -54 -50 -20 -53
-80 -110 -132 -124 -24 -7 -186 -11 -433 -11 -256 0 -409 -4 -435 -11 -46 -13
-121 -85 -127 -121 -3 -17 12 -41 57 -89 33 -37 77 -95 98 -130 36 -61 87
-200 87 -238 0 -15 16 -21 88 -35 218 -42 424 -197 523 -395 49 -99 69 -176
76 -285 l6 -99 74 6 c101 8 145 38 189 132 23 47 24 60 24 251 0 219 9 290 41
335 l20 29 -34 42 c-48 59 -73 113 -87 186 -31 154 60 326 210 400 49 24 66
27 160 27 96 0 110 -3 161 -29 71 -35 139 -104 176 -176 25 -50 28 -65 28
-160 0 -106 -2 -113 -53 -212 -2 -5 192 -8 432 -8 l436 0 0 213 c0 242 7 279
74 354 68 77 40 73 564 73 l469 0 6 56 c12 121 102 246 216 301 50 24 68 28
156 28 90 0 106 -3 160 -30 76 -37 143 -104 181 -180 26 -54 29 -69 29 -160
-1 -92 -3 -105 -32 -160 -40 -77 -112 -147 -188 -182 -52 -24 -73 -28 -150
-28 -77 0 -99 4 -147 27 -104 48 -189 148 -217 256 l-12 42 -468 0 -468 0 -42
-31 c-30 -21 -51 -49 -72 -92 l-29 -62 0 -212 0 -213 58 0 58 0 13 50 c28 109
128 215 241 256 65 23 182 21 248 -4 236 -91 321 -380 170 -576 -125 -164
-361 -198 -522 -75 -86 67 -142 168 -148 268 l-3 51 -194 0 -193 0 4 -162 c4
-188 15 -222 81 -266 l41 -27 920 -5 c1001 -5 950 -2 1015 -63 65 -62 71 -86
71 -333 l0 -221 39 -6 c107 -14 224 -104 276 -212 26 -53 29 -71 30 -155 0
-88 -3 -101 -33 -162 -66 -136 -187 -211 -337 -211 -104 0 -176 27 -250 94
-144 132 -165 342 -50 498 62 85 177 151 262 151 l35 0 -4 228 c-3 191 -6 232
-20 258 -26 48 -72 81 -128 93 -35 7 -335 11 -933 11 -836 0 -884 1 -923 19
-49 22 -97 78 -113 130 -6 21 -11 105 -11 190 l0 151 -240 0 -240 0 0 -363 c0
-447 0 -448 113 -539 1 -1 200 -4 442 -7 430 -6 441 -6 482 -28 96 -52 127
-129 121 -307 l-3 -104 66 -4 c312 -23 455 -413 232 -636 -58 -58 -122 -90
-208 -105 l-65 -11 0 -59 c0 -62 14 -99 52 -134 55 -52 67 -53 500 -53 261 0
417 -4 443 -11 26 -7 56 -28 86 -59 62 -64 69 -99 69 -364 l0 -213 39 -6 c109
-14 221 -99 274 -206 30 -61 32 -73 32 -166 0 -89 -3 -106 -28 -157 -102 -208
-359 -279 -547 -150 -145 99 -203 284 -141 445 46 117 178 221 299 235 l44 5
-4 236 c-3 222 -5 239 -26 278 -12 24 -41 55 -64 70 l-41 28 -436 5 -436 5
-47 28 c-65 38 -97 95 -105 184 l-6 69 -50 12 c-174 41 -300 236 -268 416 15
82 55 157 113 212 48 45 137 94 171 94 15 0 17 13 17 143 0 129 -2 146 -23
182 -14 24 -40 50 -67 65 l-45 25 -436 5 -436 5 -41 27 c-22 15 -54 49 -69 75
l-28 48 -3 393 -3 392 -60 0 c-53 0 -64 -3 -92 -30 -105 -99 -282 -123 -416
-56 -27 14 -53 26 -55 26 -3 0 -15 -18 -26 -40 -18 -36 -20 -58 -20 -244 0
-113 -5 -227 -11 -254 -14 -69 -66 -150 -116 -186 -36 -25 -54 -30 -122 -34
l-81 -5 -5 -36 c-5 -32 -51 -180 -70 -223 -7 -17 21 -18 511 -18 l517 0 43
-25 c24 -14 57 -46 74 -70 55 -80 60 -108 60 -334 l0 -206 66 -13 c36 -7 84
-22 107 -33 66 -34 141 -113 173 -182 26 -54 29 -73 29 -157 0 -85 -3 -101
-29 -155 -59 -119 -178 -204 -298 -213 l-58 -4 0 -302 c0 -176 4 -316 10 -338
12 -43 62 -111 103 -142 26 -19 44 -21 218 -24 l189 -4 0 61 c0 118 63 237
162 304 191 130 447 59 551 -152 29 -59 32 -74 32 -156 0 -76 -4 -99 -27 -148
-38 -80 -114 -158 -191 -193 -53 -24 -75 -28 -152 -29 -102 0 -150 15 -226 71
-51 37 -110 117 -130 177 l-13 37 -185 0 c-211 0 -245 9 -301 80 -69 87 -70
91 -70 442 l0 316 -51 12 c-67 16 -160 80 -202 138 -53 73 -72 134 -72 232 0
76 4 93 33 152 54 109 176 202 278 210 l24 2 0 202 c0 161 -3 212 -17 253 -21
67 -82 137 -131 151 -20 5 -137 10 -259 10 l-223 0 0 -1561 0 -1561 22 -39
c12 -21 39 -50 59 -65 71 -49 98 -53 340 -54 l226 0 6 45 c16 113 103 225 217
279 58 27 75 31 155 31 76 0 99 -4 147 -27 293 -137 301 -532 13 -681 -55 -29
-68 -31 -160 -32 -91 0 -106 3 -160 29 -109 54 -197 168 -211 277 l-6 48 -247
3 c-231 3 -248 4 -287 25 -61 32 -102 71 -124 114 -20 37 -20 70 -20 1604 l0
1565 -272 0 -273 -1 -34 -49 c-42 -63 -143 -158 -213 -201 l-54 -33 30 -44 31
-44 3 -423 3 -423 22 -6 c12 -3 31 -6 42 -6 11 0 49 -14 85 -32 36 -18 74 -35
85 -39 11 -4 -99 -7 -245 -7 -146 0 -256 3 -246 5 11 3 36 16 56 29 19 13 66
31 103 40 l67 17 0 404 c0 428 -1 440 -48 490 l-21 21 -78 -26 -78 -27 -542
-3 -543 -3 0 -357 c0 -409 2 -416 81 -469 l42 -28 251 -5 c278 -6 287 -8 371
-82 74 -65 70 -12 73 -809 l3 -717 42 -6 c114 -17 232 -110 285 -224 23 -48
27 -70 27 -147 0 -81 -4 -97 -32 -156 -39 -79 -110 -150 -191 -187 -49 -23
-70 -27 -147 -27 -80 0 -97 3 -157 32 -81 38 -146 102 -185 181 -25 51 -28 68
-28 157 0 90 3 106 29 160 54 109 169 196 278 211 l43 6 -5 722 -5 723 -27 36
c-16 20 -53 48 -85 64 -58 28 -59 28 -303 33 -266 5 -277 8 -331 67 -59 63
-59 60 -59 458 l0 365 -385 0 -385 0 0 -32 c0 -54 20 -110 50 -140 l28 -28
242 0 242 0 38 -38 c68 -68 70 -84 70 -609 l0 -463 33 0 c85 0 224 -106 275
-210 24 -49 27 -67 27 -155 0 -93 -2 -105 -32 -166 -39 -79 -102 -140 -181
-177 -50 -24 -70 -27 -157 -27 -89 0 -106 3 -156 27 -161 80 -248 260 -205
428 38 149 151 254 303 282 l58 11 -2 475 c-3 471 -3 477 -25 522 -13 25 -34
51 -48 57 -18 9 -94 13 -260 13 -201 0 -239 2 -259 16 -34 24 -71 110 -71 167
l0 47 -170 0 -170 0 0 -313 0 -313 50 -13 c109 -28 214 -127 256 -241 24 -66
22 -182 -5 -252 -42 -108 -144 -202 -250 -229 l-51 -13 0 -120 c0 -174 -19
-223 -112 -286 -76 -52 -134 -60 -452 -59 l-280 0 -12 -40 c-29 -99 -104 -183
-203 -230 -49 -23 -69 -26 -156 -26 -89 0 -106 3 -157 28 -162 79 -247 258
-204 427 30 119 128 228 241 267 71 25 184 22 257 -6 127 -49 226 -182 236
-313 l5 -68 306 0 c330 1 349 3 417 55 67 51 74 73 74 227 l0 137 -37 6 c-119
18 -207 67 -271 151 -51 65 -74 136 -74 224 0 112 28 178 111 261 73 73 148
109 226 109 l45 0 0 315 0 316 -204 -2 -204 -1 -7 -51 c-9 -61 -33 -112 -70
-147 l-27 -25 -799 -3 -799 -2 7 -28 c5 -15 8 -70 8 -122 0 -83 -4 -102 -28
-152 -37 -75 -128 -159 -204 -189 -72 -27 -198 -31 -255 -6 l-38 16 0 -288 0
-287 62 -12 c127 -24 232 -104 286 -220 23 -49 27 -70 27 -152 0 -85 -3 -101
-29 -155 -38 -76 -110 -149 -184 -183 -50 -24 -69 -27 -157 -27 -88 0 -107 3
-157 27 -74 34 -147 107 -183 183 -26 53 -29 71 -30 155 0 83 4 102 27 152 51
109 166 202 267 215 l41 6 0 58 0 59 -575 0 -575 0 0 -172 c0 -147 3 -179 19
-214 33 -73 36 -74 299 -74 269 0 273 -1 319 -84 27 -49 28 -57 31 -227 l4
-176 50 -6 c150 -18 300 -161 316 -302 l5 -45 206 0 c233 0 260 -7 318 -73 34
-38 45 -70 62 -176 11 -66 42 -120 84 -143 12 -6 61 -14 108 -17 l87 -6 6 58
c9 85 55 175 121 235 76 70 146 96 255 96 75 1 93 -3 150 -30 79 -38 151 -108
188 -184 24 -49 27 -66 27 -155 0 -90 -3 -106 -29 -160 -38 -76 -110 -149
-184 -183 -50 -24 -69 -27 -157 -27 -89 0 -106 3 -155 27 -31 15 -78 49 -104
75 -49 48 -106 150 -106 189 0 19 -7 21 -89 27 -100 6 -120 14 -174 66 -40 38
-67 106 -67 170 -1 57 -33 116 -81 148 l-42 28 -208 3 -208 3 -6 -38 c-21
-128 -98 -238 -203 -292 -195 -102 -443 -4 -522 206 -32 84 -25 216 14 291 55
107 161 189 267 207 l41 7 -4 167 c-3 152 -5 170 -28 216 -14 28 -36 56 -50
62 -18 9 -94 13 -261 13 l-236 0 -27 25 c-56 52 -66 92 -66 288 l0 177 -98 0
c-118 0 -166 20 -216 88 l-31 44 -6 326 c-3 229 -9 336 -18 357 -28 67 -97
115 -164 115 -34 0 -34 0 -41 -57 -14 -123 -104 -246 -219 -299 -54 -26 -73
-29 -157 -29 -85 0 -101 3 -155 29 -76 38 -143 105 -181 181 -26 54 -29 70
-29 160 0 89 3 106 28 157 39 79 104 143 185 181 60 29 76 32 157 32 76 0 99
-5 147 -27 63 -29 137 -92 169 -145 12 -19 29 -59 39 -89 9 -30 18 -55 21 -56
122 -16 174 -44 217 -117 l27 -46 5 -330 c3 -224 9 -336 17 -350 18 -31 65
-73 96 -84 19 -7 252 -11 708 -11 l679 0 0 228 -1 227 -39 27 c-91 63 -145
177 -145 303 0 68 5 90 31 145 110 234 404 295 594 124 22 -20 49 -51 61 -70
l21 -34 789 0 c870 0 832 -3 865 62 9 17 19 54 23 83 l7 52 -96 22 c-273 61
-504 257 -609 518 -47 116 -56 167 -56 328 1 167 16 236 81 369 19 37 34 70
34 72 0 9 -235 3 -275 -7 -49 -12 -101 -58 -121 -106 -11 -25 -14 -107 -14
-356 l0 -323 -26 -52 c-18 -35 -41 -63 -72 -85 l-47 -32 -229 -3 c-207 -3
-232 -5 -254 -22 -45 -36 -131 -61 -206 -61 -84 0 -120 10 -192 51 l-54 30
-299 0 -298 0 -7 -37 c-17 -106 -101 -215 -204 -265 -62 -31 -74 -33 -167 -33
-89 0 -106 3 -156 27 -76 38 -146 109 -183 188 -27 57 -31 75 -30 150 1 116
27 182 103 259 94 96 215 137 334 112 80 -17 129 -43 192 -102 61 -58 105
-141 112 -215 l6 -54 283 0 283 0 -35 51 c-43 64 -64 135 -64 215 l0 62 -172
4 c-195 4 -228 14 -286 83 -49 60 -52 87 -52 426 0 284 -2 318 -19 354 -21 46
-54 79 -94 94 -18 7 -143 11 -338 11 -304 0 -309 0 -309 -20 0 -33 -48 -119
-96 -170 -24 -25 -69 -60 -101 -76 -53 -27 -67 -29 -163 -29 -93 0 -112 3
-162 27 -76 35 -142 104 -181 186 -28 59 -32 77 -32 152 0 75 4 93 32 152 113
240 407 298 596 119 72 -68 109 -145 115 -238 l5 -72 322 -3 322 -3 40 -28
c22 -15 50 -46 64 -70 24 -42 24 -45 29 -382 5 -328 6 -341 27 -382 15 -28 39
-52 70 -70 47 -27 52 -28 220 -31 l172 -2 27 60 c67 149 245 242 402 209 247
-51 380 -304 273 -523 -17 -34 -38 -71 -47 -84 l-16 -22 186 0 c199 0 235 7
284 53 56 52 57 55 62 428 l5 346 28 41 c15 23 46 54 69 69 40 27 46 28 204
31 l162 4 31 43 c30 42 31 47 31 145 0 124 -13 152 -92 196 l-53 29 -497 3
c-446 3 -498 1 -498 -13 0 -33 -47 -112 -95 -160 -150 -150 -378 -150 -528 1
-26 27 -60 73 -75 104 -24 49 -27 66 -27 160 0 100 1 108 34 168 41 75 103
135 179 170 50 24 70 27 157 27 89 0 106 -3 155 -27 133 -66 233 -231 218
-362 l-4 -36 93 0 93 0 0 208 c0 114 -5 224 -11 245 -14 50 -59 100 -117 129
l-47 23 -806 5 -806 5 -48 30 c-36 22 -57 45 -77 84 -27 51 -28 60 -28 186 l0
133 -38 7 c-111 21 -231 123 -272 232 -30 79 -31 188 -1 265 57 149 191 241
351 241 213 0 373 -161 373 -373 0 -102 -28 -173 -100 -250 -66 -71 -138 -110
-222 -117 l-61 -6 0 -116 c0 -132 10 -177 47 -221 57 -69 3 -64 893 -70 619
-4 812 -8 834 -18 54 -24 113 -73 137 -115 23 -40 24 -50 27 -274 l3 -232 387
-3 387 -3 51 -27 c94 -50 128 -115 122 -234 l-3 -62 40 37 c138 127 369 221
545 221 l47 0 11 51 c13 54 75 191 112 247 l22 32 -491 0 c-532 0 -523 -1
-590 56 -68 57 -71 72 -71 424 0 198 -4 330 -11 355 -14 51 -73 110 -124 124
-27 7 -195 11 -505 11 l-465 -1 -24 -51 c-33 -71 -99 -133 -179 -171 -60 -29
-76 -32 -157 -31 -80 0 -97 4 -157 32 -284 137 -286 529 -3 675 55 29 68 31
160 32 88 0 107 -3 157 -27 74 -34 152 -112 186 -186 23 -49 27 -70 27 -149
l0 -93 232 0 232 0 3 333 c3 313 4 335 24 378 28 59 78 115 125 140 35 17 61
19 312 19 l274 0 5 73 c8 130 91 247 216 305 50 24 70 27 157 27 93 0 104 -2
161 -32 258 -135 282 -483 44 -645 -137 -94 -315 -85 -450 22 -46 36 -97 114
-115 173 l-12 42 -269 3 c-262 2 -270 2 -314 -20 -55 -28 -104 -97 -119 -168
-7 -30 -11 -173 -11 -350 l0 -300 229 0 229 0 53 -28 c39 -20 62 -41 84 -77
l30 -48 5 -347 c5 -346 5 -347 29 -382 13 -19 40 -46 59 -59 l36 -24 510 -3
511 -2 65 66 c161 164 377 254 608 254 245 0 466 -98 635 -280 l66 -71 71 22
72 21 -4 182 c-3 173 -4 183 -27 217 -14 20 -41 47 -60 60 l-34 24 -436 5
c-422 5 -437 6 -476 27 -91 49 -115 101 -115 252 l0 109 -51 7 c-71 10 -181
67 -225 118 -168 195 -116 474 110 589 84 43 203 51 289 18 155 -58 250 -196
249 -359 -2 -181 -126 -325 -314 -365 l-28 -6 0 -107 c0 -134 18 -179 88 -221
l47 -27 436 -5 436 -5 41 -28 c23 -15 54 -46 69 -69 28 -41 28 -44 31 -225 l3
-183 25 0 24 0 0 793 c0 527 4 805 11 830 14 53 70 111 137 144 57 28 57 28
322 33 l265 5 3 25 c11 95 70 195 149 256 149 114 371 93 496 -46 188 -209
102 -528 -165 -612 -210 -65 -428 66 -473 282 l-12 55 -259 0 c-243 0 -262 -1
-305 -21 -60 -28 -115 -84 -128 -131 -6 -21 -11 -117 -11 -213 l0 -175 970 0
970 0 0 210 c0 116 5 226 10 245 16 59 67 128 117 160 l47 30 380 0 381 0 2
63 c4 114 92 249 198 305 81 42 187 52 276 26z m-2511 -5348 c0 -17 47 -60 90
-82 45 -22 182 -31 247 -15 64 16 122 55 138 93 l13 32 31 -35 c18 -19 44 -59
59 -89 24 -49 27 -66 27 -155 0 -87 -3 -107 -27 -157 -37 -79 -98 -142 -177
-181 -61 -30 -73 -32 -166 -32 -90 1 -106 3 -158 29 -64 33 -144 111 -175 172
-66 130 -47 291 49 407 29 35 49 41 49 13z"/>
<path d="M10203 7909 c-17 -5 -43 -23 -57 -40 l-26 -31 0 -194 c0 -107 3 -194
8 -194 4 0 6 71 4 157 -4 213 10 261 84 282 46 13 96 -8 116 -49 15 -29 18
-63 18 -194 0 -149 1 -158 18 -145 15 13 16 12 3 -3 -18 -23 -31 -14 -31 23 0
36 -18 38 -54 4 -25 -24 -27 -29 -24 -107 l3 -83 92 -3 92 -3 7 36 c12 67 -1
136 -30 162 -15 13 -34 23 -42 23 -11 0 -14 24 -14 138 0 118 -3 141 -20 169
-30 49 -87 70 -147 52z"/>
<path d="M4703 7813 c-23 -4 -83 -66 -83 -84 0 -6 -10 -3 -22 5 -54 38 -128
-1 -128 -67 0 -19 7 -40 15 -47 13 -11 11 -15 -10 -32 -23 -18 -25 -26 -25
-102 0 -128 -3 -126 191 -126 91 0 169 4 180 10 17 10 19 22 19 110 0 91 -2
100 -22 114 -12 9 -17 16 -10 16 17 0 44 58 44 97 0 44 -25 81 -67 99 -35 14
-42 15 -82 7z m92 -58 c14 -13 25 -33 25 -44 0 -108 -159 -119 -162 -12 -2 72
86 108 137 56z m-141 -132 l19 -23 -37 0 -36 0 16 25 c9 14 17 24 18 23 1 -2
10 -13 20 -25z"/>
<path d="M4684 7735 c-27 -41 4 -95 55 -95 34 0 61 28 61 62 0 56 -85 81 -116
33z"/>
<path d="M7888 7714 c-77 -41 -75 -169 2 -209 87 -45 190 11 190 105 0 94
-106 151 -192 104z"/>
<path d="M4917 7537 c-52 -29 -58 -35 -55 -62 3 -25 12 -35 56 -58 29 -16 55
-27 58 -24 3 2 4 43 2 90 l-3 86 -58 -32z"/>
<path d="M8071 7519 c-13 -17 -36 -36 -52 -43 l-29 -12 95 -77 c52 -42 100
-77 108 -77 18 0 37 20 37 40 0 11 -106 168 -134 197 -1 2 -13 -11 -25 -28z
m53 -59 c-14 -14 -39 14 -29 31 5 8 12 6 23 -5 11 -11 13 -19 6 -26z"/>
<path d="M10120 7395 c0 -29 -5 -45 -12 -46 -7 -1 -17 -2 -23 -4 -5 -1 -16 -3
-22 -3 -7 -1 -13 -6 -13 -12 0 -6 33 -10 80 -10 47 0 80 4 80 10 0 9 -15 14
-34 11 -19 -4 -36 24 -36 60 0 22 -4 39 -10 39 -5 0 -10 -20 -10 -45z"/>
<path d="M10230 7380 c0 -27 5 -50 10 -50 6 0 10 23 10 50 0 28 -4 50 -10 50
-5 0 -10 -22 -10 -50z"/>
<path d="M10471 7398 c-1 -20 -4 -43 -7 -52 -3 -9 -2 -16 4 -16 16 0 24 53 13
81 -9 22 -10 21 -10 -13z"/>
<path d="M8316 7342 c4 -19 0 -32 -11 -42 -15 -12 -21 -12 -46 2 -23 13 -29
14 -29 4 0 -20 59 -42 78 -30 26 17 35 39 28 67 -9 36 -27 35 -20 -1z"/>
<path d="M5623 7183 c-8 -2 -13 -22 -13 -44 l0 -39 150 0 150 0 0 33 c0 53
-11 57 -149 56 -70 0 -132 -3 -138 -6z"/>
<path d="M1646 7129 c-14 -4 -37 -17 -52 -28 l-27 -21 149 0 148 0 -34 25
c-19 14 -41 25 -49 26 -71 4 -113 3 -135 -2z"/>
<path d="M1580 7028 c0 -61 26 -228 38 -240 5 -5 51 -7 103 -6 l94 3 12 50 c7
28 16 92 19 143 l7 92 -137 0 -136 0 0 -42z m260 -5 c0 -38 -15 -153 -26 -205
l-6 -28 -93 0 c-108 0 -98 -12 -115 135 -17 150 -30 135 115 135 l125 0 0 -37z"/>
<path d="M5464 7057 c-2 -7 -3 -62 -2 -123 l3 -109 58 -3 57 -3 0 56 0 55 178
0 178 0 -3 -55 -2 -55 53 0 c34 0 58 5 65 14 8 9 11 51 9 122 l-3 109 -293 3
c-236 2 -293 0 -298 -11z m104 -50 c3 -12 -3 -17 -22 -17 -25 0 -35 18 -19 34
12 12 38 2 41 -17z"/>
<path d="M1860 7031 c0 -6 11 -11 25 -11 29 0 29 -4 14 -101 -11 -63 -14 -69
-35 -69 -13 0 -24 -6 -24 -13 0 -9 10 -12 31 -9 39 6 49 31 52 131 l2 76 -32
3 c-19 2 -33 -1 -33 -7z"/>
<path d="M2636 7000 c-103 -40 -168 -136 -168 -244 1 -108 85 -286 136 -286
22 0 66 40 66 60 0 23 -48 139 -67 162 -21 23 -48 28 -79 12 -14 -8 -28 -14
-30 -14 -2 0 -4 27 -4 60 0 227 280 334 429 165 l32 -37 -32 -16 c-54 -28 -56
-41 -24 -124 33 -86 50 -108 83 -108 21 0 23 -3 17 -27 -11 -49 -58 -97 -94
-99 -42 -2 -60 -19 -41 -38 16 -15 60 -5 60 13 0 5 16 19 35 31 42 26 81 89
90 146 9 59 -59 221 -118 282 -75 77 -190 101 -291 62z m310 -254 c26 -65 30
-90 13 -84 -9 3 -69 129 -69 145 0 2 7 3 16 1 9 -2 27 -30 40 -62z m-332 -127
c14 -33 26 -67 26 -75 0 -31 -21 -11 -44 40 -36 81 -40 96 -23 96 8 0 26 -27
41 -61z"/>
<path d="M5612 6813 l3 -98 145 0 145 0 3 98 3 97 -151 0 -151 0 3 -97z m238
42 c0 -12 -17 -15 -90 -15 -73 0 -90 3 -90 15 0 12 17 15 90 15 73 0 90 -3 90
-15z m0 -45 c0 -6 -37 -10 -90 -10 -53 0 -90 4 -90 10 0 6 37 10 90 10 53 0
90 -4 90 -10z m0 -44 c0 -13 -15 -16 -90 -16 -69 0 -90 3 -90 14 0 10 21 14
90 15 75 2 90 0 90 -13z"/>
<path d="M1620 6745 c0 -25 0 -25 95 -25 95 0 95 0 95 25 0 25 0 25 -95 25
-95 0 -95 0 -95 -25z"/>
<path d="M1616 6683 c-18 -92 -26 -155 -21 -163 8 -13 232 -13 240 0 6 10 -9
134 -21 173 -5 15 -19 17 -99 17 l-93 0 -6 -27z"/>
<path d="M8407 6524 c-20 -20 12 -24 214 -24 172 0 220 3 217 13 -4 9 -57 13
-214 15 -116 1 -213 -1 -217 -4z"/>
<path d="M1625 6490 c4 -6 11 -8 16 -5 14 9 11 15 -7 15 -8 0 -12 -5 -9 -10z"/>
<path d="M1785 6490 c4 -6 11 -8 16 -5 14 9 11 15 -7 15 -8 0 -12 -5 -9 -10z"/>
<path d="M8400 6451 l0 -39 220 0 220 0 0 39 0 39 -220 0 -220 0 0 -39z m420
4 c0 -8 -9 -15 -20 -15 -11 0 -20 7 -20 15 0 8 9 15 20 15 11 0 20 -7 20 -15z"/>
<path d="M8536 6387 c-56 -32 -79 -67 -79 -122 0 -84 69 -145 163 -145 125 0
201 112 143 212 -23 41 -94 78 -148 78 -23 0 -57 -10 -79 -23z m154 -45 c40
-30 54 -66 40 -108 -30 -90 -171 -99 -215 -14 -19 36 -19 54 -1 89 31 59 119
75 176 33z"/>
<path d="M8400 6190 l1 -210 219 0 219 0 1 210 0 210 -65 0 -66 0 36 -31 c109
-96 29 -259 -126 -259 -75 0 -127 31 -158 93 -30 60 -23 104 26 158 l35 39
-61 0 -61 0 0 -210z m57 -166 c-3 -3 -12 -4 -19 -1 -8 3 -5 6 6 6 11 1 17 -2
13 -5z m350 0 c-3 -3 -12 -4 -19 -1 -8 3 -5 6 6 6 11 1 17 -2 13 -5z m-129
-11 c-38 -2 -98 -2 -135 0 -38 2 -7 3 67 3 74 0 105 -1 68 -3z"/>
<path d="M9870 6230 c0 -127 2 -150 15 -150 13 0 15 22 15 135 l0 135 260 0
260 0 0 -135 c0 -113 2 -135 15 -135 13 0 15 23 15 150 l0 150 -290 0 -290 0
0 -150z"/>
<path d="M9888 6073 c-10 -2 -18 -13 -18 -24 0 -18 10 -19 290 -19 277 0 290
1 290 19 0 11 -9 21 -22 25 -26 7 -514 6 -540 -1z"/>
<path d="M10136 6005 c-3 -8 -18 -15 -34 -15 -30 0 -52 -16 -52 -37 0 -10 26
-13 113 -11 l112 2 -110 6 -110 6 103 2 c78 2 103 5 100 15 -3 6 -19 13 -37
15 -18 2 -35 10 -38 18 -7 19 -39 18 -47 -1z"/>
<path d="M11563 5988 c-22 -11 -37 -36 -87 -152 -23 -51 -26 -73 -26 -166 0
-117 2 -120 58 -120 39 0 50 11 54 50 l3 35 153 3 152 3 0 -34 c0 -43 15 -57
62 -57 50 0 58 18 57 122 -1 71 -7 98 -41 185 -55 142 -56 143 -227 142 -75 0
-146 -5 -158 -11z m334 -95 l32 -63 -209 0 c-116 0 -210 1 -210 3 0 6 51 101
61 113 9 12 41 14 153 12 l141 -3 32 -62z m-312 -173 c0 -24 -89 -21 -93 3 -3
16 3 18 45 15 35 -2 48 -7 48 -18z m353 3 c-4 -20 -74 -31 -90 -15 -18 18 3
32 48 32 38 0 45 -3 42 -17z m-138 -3 c0 -6 -35 -10 -85 -10 -50 0 -85 4 -85
10 0 6 35 10 85 10 50 0 85 -4 85 -10z"/>
<path d="M3210 5695 c0 -41 -23 -60 -88 -70 -24 -4 -54 -17 -67 -28 -29 -26
-44 -77 -23 -77 7 0 14 10 15 23 3 31 36 55 89 63 64 9 94 36 94 85 0 21 -4
39 -10 39 -5 0 -10 -16 -10 -35z"/>
<path d="M1210 5650 c0 -5 5 -10 11 -10 5 0 7 5 4 10 -3 6 -8 10 -11 10 -2 0
-4 -4 -4 -10z"/>
<path d="M1083 5570 l-32 -59 165 -3 c90 -2 164 0 164 5 0 4 -14 32 -31 62
l-31 55 -101 0 -102 0 -32 -60z"/>
<path d="M9230 5620 c0 -5 5 -10 10 -10 6 0 10 5 10 10 0 6 -4 10 -10 10 -5 0
-10 -4 -10 -10z"/>
<path d="M9226 5589 c-8 -24 -26 -94 -26 -101 0 -5 4 -8 9 -8 9 0 33 111 25
119 -2 2 -6 -2 -8 -10z"/>
<path d="M1209 5493 c-5 -25 -6 -56 -8 -235 l-1 -196 -30 -7 c-40 -9 -38 -25
3 -27 95 -5 162 15 93 27 l-36 7 0 219 c0 139 -4 219 -10 219 -5 0 -11 -3 -11
-7z"/>
<path d="M2813 5470 c-47 -28 -62 -85 -37 -137 32 -65 61 -73 267 -73 200 0
234 8 267 62 24 39 25 69 6 107 -30 57 -46 61 -268 61 -184 0 -206 -2 -235
-20z m100 -60 c3 -11 11 -19 18 -18 7 2 15 -5 17 -14 2 -13 -3 -18 -17 -18
-14 0 -21 -6 -21 -20 0 -11 -7 -20 -15 -20 -8 0 -15 9 -15 20 0 13 -7 20 -20
20 -14 0 -20 7 -20 21 0 15 4 19 16 15 11 -4 18 1 21 14 7 26 29 26 36 0z
m312 11 c7 -12 -12 -24 -25 -16 -11 7 -4 25 10 25 5 0 11 -4 15 -9z m-45 -46
c0 -8 -7 -15 -15 -15 -16 0 -20 12 -8 23 11 12 23 8 23 -8z m85 5 c3 -6 -1
-13 -10 -16 -19 -8 -30 0 -20 15 8 14 22 14 30 1z m-40 -40 c3 -6 -1 -13 -10
-16 -19 -8 -30 0 -20 15 8 14 22 14 30 1z"/>
<path d="M9182 5421 c-14 -46 -15 -71 -3 -71 11 0 17 17 27 73 8 49 -9 48 -24
-2z"/>
<path d="M10607 5364 c-4 -4 -7 -49 -7 -101 l0 -93 150 0 151 0 -3 98 -3 97
-141 3 c-77 1 -143 -1 -147 -4z m53 -99 c0 -30 -4 -55 -10 -55 -5 0 -10 25
-10 55 0 30 5 55 10 55 6 0 10 -25 10 -55z"/>
<path d="M8770 5313 c-57 -52 -56 -129 1 -177 26 -22 40 -26 94 -26 63 0 63 0
75 34 13 40 25 46 90 46 65 0 77 -6 90 -46 11 -34 12 -34 73 -34 71 0 121 24
137 66 34 88 -24 164 -124 164 -36 0 -48 -5 -65 -27 -12 -14 -24 -37 -27 -50
-6 -22 -11 -23 -84 -23 -77 0 -78 0 -85 28 -12 49 -43 72 -97 72 -38 0 -54 -6
-78 -27z m134 -55 c9 -12 16 -30 16 -40 0 -26 -36 -58 -65 -58 -30 0 -65 32
-65 60 0 53 84 81 114 38z m348 5 c38 -34 11 -103 -40 -103 -54 0 -81 62 -45
102 20 22 61 23 85 1z"/>
<path d="M8939 5314 c12 -15 21 -35 21 -45 0 -17 8 -19 68 -19 l67 1 21 44 21
45 -109 0 -109 0 20 -26z"/>
<path d="M8960 5144 c-6 -14 -10 -27 -10 -30 0 -2 36 -4 80 -4 44 0 80 2 80 4
0 3 -4 16 -10 30 -9 24 -14 26 -70 26 -56 0 -61 -2 -70 -26z"/>
<path d="M10604 5151 c-9 -10 -4 -360 6 -366 16 -10 272 -7 282 3 4 4 7 88 6
186 l-3 177 -143 2 c-79 1 -146 0 -148 -2z m56 -86 c0 -30 -4 -55 -10 -55 -5
0 -10 25 -10 55 0 30 5 55 10 55 6 0 10 -25 10 -55z"/>
<path d="M3212 4507 c-12 -12 -64 -111 -117 -220 -124 -256 -124 -254 -3 -317
128 -66 120 -72 250 190 104 207 116 239 102 275 -8 20 -155 95 -187 95 -13 0
-33 -10 -45 -23z m118 -57 c94 -47 95 -50 47 -153 -50 -108 -52 -109 -153 -59
-59 29 -84 47 -84 60 0 10 18 54 39 99 33 68 46 86 69 92 1 1 38 -17 82 -39z
m-202 -208 c12 -8 7 -42 -7 -42 -17 1 -31 18 -25 33 7 19 13 20 32 9z m59 -30
c10 -7 10 -12 0 -25 -15 -20 -43 -7 -34 17 7 18 16 20 34 8z m59 -33 c9 -15
-11 -33 -30 -26 -9 4 -13 13 -10 22 7 17 30 20 40 4z m-146 -24 c0 -19 -20
-29 -31 -18 -14 14 0 43 17 36 8 -3 14 -11 14 -18z m203 -1 c9 -10 -4 -34 -18
-34 -17 0 -28 17 -20 30 7 11 28 13 38 4z m-143 -23 c-1 -17 -18 -31 -33 -25
-20 7 -21 16 -6 31 11 11 39 7 39 -6z m47 -19 c10 -7 10 -12 0 -25 -15 -20
-43 -7 -34 17 7 18 16 20 34 8z m-141 -23 c9 -15 -11 -33 -30 -26 -9 4 -13 13
-10 22 7 17 30 20 40 4z m198 -8 c4 -5 3 -16 0 -25 -5 -12 -10 -13 -25 -6 -10
6 -16 17 -13 25 7 17 30 20 38 6z m-144 -26 c0 -19 -20 -29 -31 -18 -14 14 0
43 17 36 8 -3 14 -11 14 -18z m60 -24 c-1 -17 -18 -31 -33 -25 -13 5 -14 10
-7 25 9 16 40 17 40 0z m47 -19 c10 -7 10 -12 0 -25 -15 -21 -40 -8 -31 16 7
19 13 20 31 9z"/>
<path d="M1790 4170 c0 -18 7 -20 55 -20 48 0 55 2 55 20 0 18 -7 20 -55 20
-48 0 -55 -2 -55 -20z"/>
<path d="M1758 4129 c-16 -9 -18 -28 -18 -177 0 -92 4 -173 8 -180 7 -9 66
-12 263 -10 l254 3 3 174 c2 119 -1 178 -9 187 -9 11 -59 14 -248 14 -142 0
-243 -5 -253 -11z m466 -25 c9 -3 16 -15 16 -25 0 -16 -8 -19 -45 -19 -37 0
-45 3 -45 18 0 10 3 22 7 25 8 9 46 9 67 1z m-230 -28 c105 -44 111 -193 10
-252 -72 -42 -151 -22 -194 49 -72 118 54 257 184 203z"/>
<path d="M1859 4021 c-57 -57 -31 -158 46 -177 42 -10 87 8 113 46 69 102 -72
218 -159 131z"/>
<path d="M12128 3889 c-10 -5 -18 -13 -18 -17 0 -10 137 -35 150 -27 48 29
-83 73 -132 44z"/>
<path d="M12058 3816 c-25 -19 -22 -26 10 -26 16 0 62 -11 102 -25 88 -30 140
-32 163 -7 24 26 22 28 -20 24 -24 -2 -64 6 -106 22 -74 29 -123 32 -149 12z"/>
<path d="M11989 3740 l-24 -19 36 -1 c19 0 69 -12 110 -26 90 -32 131 -34 159
-9 29 26 25 31 -18 27 -23 -2 -63 6 -106 22 -82 31 -126 33 -157 6z"/>
<path d="M11929 3670 l-24 -19 31 -1 c17 0 64 -11 105 -25 98 -34 143 -36 171
-7 l22 22 -40 0 c-22 0 -74 11 -114 25 -89 30 -120 31 -151 5z"/>
<path d="M10500 3638 c-103 -31 -103 -35 -15 -113 87 -78 89 -78 124 19 l22
59 -27 29 c-15 15 -30 28 -33 27 -3 0 -35 -10 -71 -21z"/>
<path d="M10602 3648 c3 -7 13 -15 24 -17 16 -3 17 -1 5 13 -16 19 -34 21 -29
4z"/>
<path d="M723 3630 c-90 -19 -168 -81 -214 -170 -33 -64 -33 -186 -1 -251 109
-221 414 -235 537 -24 74 127 37 300 -83 392 -63 48 -160 69 -239 53z m47 -71
c0 -20 4 -29 13 -26 6 2 12 13 12 25 1 27 1 27 51 19 80 -13 163 -97 182 -184
9 -41 9 -42 -17 -45 -34 -4 -34 -22 0 -26 26 -3 26 -5 17 -44 -18 -82 -75
-148 -154 -178 -70 -26 -72 -25 -76 8 -4 35 -22 35 -26 -1 -3 -26 -6 -28 -35
-22 -102 22 -183 103 -203 203 -6 27 -3 31 20 34 34 4 35 22 1 26 -32 4 -32
22 -1 87 31 66 83 113 148 136 69 24 68 24 68 -12z"/>
<path d="M763 3345 c-3 -9 -4 -17 -2 -19 2 -2 35 -29 73 -60 61 -50 86 -65 86
-52 0 7 -139 146 -145 146 -3 0 -8 -7 -12 -15z"/>
<path d="M11915 3630 c-7 -12 5 -110 14 -110 19 0 39 29 44 61 5 32 2 38 -19
48 -30 13 -31 13 -39 1z"/>
<path d="M3053 3559 c-117 -21 -189 -115 -164 -216 12 -46 75 -177 117 -245
l24 -38 79 0 78 0 50 108 c66 139 76 174 71 233 -11 108 -126 180 -255 158z
m150 -41 c91 -51 109 -128 57 -251 -59 -140 -85 -182 -114 -185 -31 -4 -32
-14 14 151 15 54 23 100 18 103 -4 3 -24 0 -43 -6 -26 -9 -44 -9 -66 -1 -17 6
-35 9 -39 6 -4 -3 5 -49 20 -102 45 -164 44 -153 16 -153 -20 0 -33 13 -64 68
-77 131 -106 218 -92 272 12 44 75 106 117 116 16 3 33 7 38 10 23 8 100 -7
138 -28z m-65 -302 c-16 -56 -30 -105 -31 -110 -2 -5 -16 40 -33 100 l-30 109
61 1 61 0 -28 -100z"/>
<path d="M12080 3555 c0 -20 -32 -35 -77 -35 -52 0 -69 -17 -40 -40 17 -14 32
-16 67 -10 64 10 79 19 96 51 14 28 14 30 -11 39 -34 13 -35 13 -35 -5z"/>
<path d="M10620 3556 c0 -10 231 -178 237 -173 3 4 4 9 2 10 -2 2 -53 41 -113
85 -98 74 -126 91 -126 78z"/>
<path d="M10610 3521 c0 -13 201 -161 219 -161 19 0 18 0 -107 94 -108 79
-112 82 -112 67z"/>
<path d="M11860 3495 c-22 -23 -22 -26 -7 -43 13 -14 14 -21 4 -31 -9 -9 -9
-14 3 -21 8 -6 21 -7 29 -5 8 3 21 -1 30 -9 14 -12 19 -10 38 14 l22 27 -48
47 -47 46 -24 -25z"/>
<path d="M10852 3367 l-22 -23 25 -24 25 -23 25 23 25 24 -22 23 c-12 13 -24
23 -28 23 -4 0 -16 -10 -28 -23z"/>
<path d="M10730 3244 c-129 -116 -157 -144 -142 -144 12 0 249 210 245 218 -1
2 -3 5 -5 7 -2 2 -46 -34 -98 -81z"/>
<path d="M10741 3209 c-62 -56 -110 -103 -107 -106 7 -8 53 30 151 120 121
113 85 101 -44 -14z"/>
<path d="M9500 3215 l0 -65 85 0 85 0 0 65 0 65 -85 0 -85 0 0 -65z"/>
<path d="M9470 3130 c-10 -7 27 -10 113 -10 83 0 126 4 122 10 -8 13 -215 13
-235 0z"/>
<path d="M9460 2973 l0 -138 130 3 130 3 0 135 0 134 -130 0 -130 0 0 -137z
m240 -3 l0 -120 -115 0 -115 0 0 120 0 120 115 0 115 0 0 -120z"/>
<path d="M9582 3023 c-1 -24 -3 -46 -4 -50 -5 -13 53 -16 65 -4 8 8 2 11 -20
11 -30 0 -32 2 -36 43 l-4 42 -1 -42z"/>
<path d="M10510 3080 c0 -6 40 -10 100 -10 60 0 100 4 100 10 0 6 -40 10 -100
10 -60 0 -100 -4 -100 -10z"/>
<path d="M3030 2995 l0 -45 75 0 75 0 0 45 0 45 -75 0 -75 0 0 -45z"/>
<path d="M3040 2930 c0 -6 28 -10 65 -10 37 0 65 4 65 10 0 6 -28 10 -65 10
-37 0 -65 -4 -65 -10z"/>
<path d="M3079 2899 c15 -6 34 -6 50 0 22 8 19 9 -24 10 -42 0 -46 -2 -26 -10z"/>
<path d="M5320 2600 l0 -240 133 0 132 0 -3 240 -3 240 -129 0 -130 0 0 -240z
m191 104 c17 -21 0 -49 -32 -49 -24 0 -36 23 -25 51 7 19 40 18 57 -2z m-1
-136 c42 -45 9 -128 -51 -128 -41 0 -58 9 -75 42 -16 31 -12 62 14 91 22 25
86 23 112 -5z"/>
<path d="M5463 2694 c-3 -8 -1 -20 6 -27 14 -14 47 15 37 32 -10 16 -36 13
-43 -5z"/>
<path d="M5423 2534 c-15 -39 38 -67 60 -32 8 12 7 21 -2 32 -17 21 -50 20
-58 0z"/>
<path d="M9473 2814 c8 -8 227 -7 235 1 3 3 -50 5 -118 5 -68 0 -120 -3 -117
-6z"/>
<path d="M9504 2787 c-3 -8 -4 -39 -2 -68 2 -42 7 -55 21 -57 12 -2 17 3 17
17 0 27 16 27 23 1 4 -17 14 -20 57 -20 l51 0 -3 68 -3 67 -78 3 c-59 2 -79 0
-83 -11z"/>
<path d="M5630 2495 l0 -135 75 0 75 0 0 135 0 135 -75 0 -75 0 0 -135z m97
58 c-9 -2 -15 -9 -11 -14 3 -5 10 -6 16 -3 7 4 8 2 4 -5 -6 -9 -11 -9 -22 0
-17 14 -9 29 14 28 15 -1 15 -2 -1 -6z m11 -75 c21 -21 14 -57 -13 -70 -22
-10 -29 -9 -47 10 -19 18 -20 25 -10 47 13 27 49 34 70 13z"/>
<path d="M5697 2463 c-4 -3 -7 -12 -7 -20 0 -15 26 -18 34 -4 7 11 -18 33 -27
24z"/>
<path d="M3113 2144 c-26 -20 -59 -46 -73 -59 -22 -19 -30 -21 -68 -13 -35 8
-42 13 -36 26 3 9 9 27 11 40 8 32 -24 29 -76 -9 -35 -25 -49 -29 -79 -25 -28
5 -43 1 -61 -14 -13 -11 -22 -22 -19 -25 2 -2 49 -25 103 -50 55 -26 102 -48
104 -50 7 -8 -131 -165 -145 -165 -8 0 -28 7 -43 15 -26 13 -30 13 -46 -5 -21
-23 -23 -21 33 -49 28 -14 52 -37 70 -66 24 -41 28 -43 44 -28 16 15 16 17 -3
55 -11 22 -19 43 -17 48 2 4 41 38 88 74 l84 67 59 -116 58 -117 20 26 c16 20
18 31 11 63 -8 36 -6 42 25 78 54 62 37 112 -24 70 -26 -18 -29 -14 -38 47 -7
46 -6 49 35 95 94 106 83 162 -17 87z"/>
<path d="M6410 2165 c-7 -8 -9 -15 -4 -15 5 0 106 -2 224 -3 l215 -2 3 -137 3
-138 -156 0 -155 0 0 -35 0 -35 158 0 c110 0 162 4 170 12 17 17 17 339 0 356
-9 9 -74 12 -229 12 -180 0 -219 -3 -229 -15z m250 -324 c0 -14 -18 -23 -30
-16 -6 4 -8 11 -5 16 8 12 35 12 35 0z"/>
<path d="M6341 2091 c-7 -12 -11 -95 -11 -209 0 -151 3 -192 14 -201 9 -7 41
-11 83 -9 l68 3 0 215 0 215 -72 3 c-63 2 -73 0 -82 -17z m129 -31 c0 -17 -7
-20 -50 -20 -43 0 -50 3 -50 20 0 17 7 20 50 20 43 0 50 -3 50 -20z m0 -70 c0
-17 -7 -20 -50 -20 -43 0 -50 3 -50 20 0 17 7 20 50 20 43 0 50 -3 50 -20z
m-70 -205 c0 -8 -7 -15 -15 -15 -8 0 -15 7 -15 15 0 8 7 15 15 15 8 0 15 -7
15 -15z"/>
<path d="M10321 2085 c-99 -22 -161 -83 -161 -160 0 -24 3 -25 58 -25 l58 0
19 43 c27 57 68 70 192 64 109 -5 139 -20 149 -72 l6 -35 64 0 c60 0 64 1 64
23 -1 46 -37 104 -82 130 -76 45 -240 59 -367 32z"/>
<path d="M4330 1936 l0 -65 47 -3 c37 -2 50 -8 58 -24 6 -12 16 -28 21 -35 15
-19 38 -108 31 -115 -3 -4 -21 -9 -38 -13 -18 -4 -34 -12 -37 -19 -3 -9 24
-12 107 -12 103 0 111 1 111 19 0 12 -8 21 -22 23 -17 2 -25 16 -38 63 -34
123 -34 115 3 115 34 0 57 15 57 37 0 7 -8 13 -18 13 -11 0 -18 8 -19 20 -1
14 4 20 18 20 22 0 24 11 7 28 -8 8 -56 12 -150 12 l-138 0 0 -64z"/>
<path d="M4283 1983 c-20 -7 -17 -89 3 -97 30 -12 34 -6 34 49 0 55 -5 61 -37
48z"/>
<path d="M4202 1958 c-10 -10 -18 -48 -9 -48 1 0 17 -4 35 -9 l32 -10 0 40 c0
34 -3 39 -23 39 -13 0 -28 -5 -35 -12z"/>
<path d="M4615 1940 c-3 -5 -1 -10 4 -10 6 0 11 5 11 10 0 6 -2 10 -4 10 -3 0
-8 -4 -11 -10z"/>
<path d="M11610 1835 l0 -115 180 0 180 0 0 115 0 115 -180 0 -180 0 0 -115z
m340 5 l0 -90 -160 0 -160 0 0 90 0 90 160 0 160 0 0 -90z"/>
<path d="M4103 1933 c15 -2 39 -2 55 0 15 2 2 4 -28 4 -30 0 -43 -2 -27 -4z"/>
<path d="M10330 1919 c0 -11 -29 -60 -65 -107 l-65 -87 2 -65 3 -65 249 -3
c193 -2 251 1 258 10 4 7 8 35 8 61 0 51 -16 81 -102 190 -21 27 -38 57 -38
68 0 27 -50 26 -57 -1 -5 -17 -14 -20 -69 -20 -57 0 -64 2 -64 20 0 16 -7 20
-30 20 -24 0 -30 -4 -30 -21z m65 -89 c-5 -8 -11 -8 -17 -2 -6 6 -7 16 -3 22
5 8 11 8 17 2 6 -6 7 -16 3 -22z m75 4 c0 -16 -16 -19 -25 -4 -8 13 4 32 16
25 5 -4 9 -13 9 -21z m76 15 c10 -17 -13 -36 -27 -22 -12 12 -4 33 11 33 5 0
12 -5 16 -11z m-151 -79 c-5 -8 -11 -8 -17 -2 -6 6 -7 16 -3 22 5 8 11 8 17 2
6 -6 7 -16 3 -22z m75 4 c0 -16 -16 -19 -25 -4 -8 13 4 32 16 25 5 -4 9 -13 9
-21z m76 15 c10 -17 -13 -36 -27 -22 -12 12 -4 33 11 33 5 0 12 -5 16 -11z
m-151 -79 c-5 -8 -11 -8 -17 -2 -6 6 -7 16 -3 22 5 8 11 8 17 2 6 -6 7 -16 3
-22z m75 4 c0 -16 -16 -19 -25 -4 -8 13 4 32 16 25 5 -4 9 -13 9 -21z m76 15
c10 -17 -13 -36 -27 -22 -12 12 -4 33 11 33 5 0 12 -5 16 -11z"/>
<path d="M10162 1863 c6 -35 118 -26 118 8 0 5 -27 9 -61 9 -52 0 -60 -2 -57
-17z"/>
<path d="M10650 1866 c0 -26 85 -37 108 -14 22 22 12 28 -48 28 -45 0 -60 -4
-60 -14z"/>
<path d="M4374 1844 c3 -9 6 -18 6 -20 0 -2 12 -4 26 -4 20 0 25 4 20 16 -3 9
-6 18 -6 20 0 2 -12 4 -26 4 -20 0 -25 -4 -20 -16z"/>
<path d="M6590 1751 c0 -10 -7 -21 -15 -25 -8 -3 -15 -10 -15 -16 0 -6 34 -10
88 -10 86 1 87 1 65 19 -13 11 -23 26 -23 35 0 13 -11 16 -50 16 -42 0 -50 -3
-50 -19z"/>
<path d="M11556 1648 c-25 -29 -46 -56 -46 -60 0 -5 126 -8 280 -8 154 0 280
3 280 6 0 3 -21 30 -47 60 l-48 54 -187 0 -186 0 -46 -52z m263 -7 c23 -15 5
-41 -29 -41 -19 0 -33 6 -37 16 -6 17 12 34 37 34 8 0 21 -4 29 -9z"/>
<path d="M4410 1620 c0 -19 7 -20 110 -20 103 0 110 1 110 20 0 19 -7 20 -110
20 -103 0 -110 -1 -110 -20z"/>
<path d="M11500 1560 c0 -6 103 -10 290 -10 187 0 290 4 290 10 0 6 -103 10
-290 10 -187 0 -290 -4 -290 -10z"/>
<path d="M2130 1111 c0 -161 1 -170 20 -176 11 -3 20 -11 20 -16 0 -5 9 -9 20
-9 11 0 20 5 20 10 0 6 80 10 220 10 140 0 220 -4 220 -10 0 -5 9 -10 20 -10
11 0 20 4 20 9 0 5 9 13 20 16 19 6 20 15 20 176 l0 169 -300 0 -300 0 0 -169z
m418 125 c14 -13 17 -36 17 -111 0 -134 6 -130 -200 -130 -205 0 -200 -4 -200
129 0 104 8 122 58 129 18 3 94 4 170 2 114 -2 142 -5 155 -19z m160 -113 l-3
-128 -52 -3 c-29 -2 -53 1 -53 5 0 4 23 6 51 4 l50 -3 -3 126 c-2 69 1 126 5
126 4 0 6 -57 5 -127z m-36 95 c12 -33 -19 -51 -41 -25 -8 10 -7 17 1 25 16
16 35 15 40 0z m6 -78 c4 -12 2 -13 -9 -2 -16 14 -39 16 -39 2 0 -5 7 -10 15
-10 8 0 15 -4 15 -10 0 -15 -16 -12 -30 5 -6 8 -9 19 -5 25 10 15 47 8 53 -10z
m-10 -57 c-10 -2 -26 -2 -35 0 -10 3 -2 5 17 5 19 0 27 -2 18 -5z m0 -30 c-10
-2 -26 -2 -35 0 -10 3 -2 5 17 5 19 0 27 -2 18 -5z m0 -30 c-10 -2 -26 -2 -35
0 -10 3 -2 5 17 5 19 0 27 -2 18 -5z m-90 -60 c-82 -2 -214 -2 -296 0 -81 1
-14 3 148 3 162 0 229 -2 148 -3z"/>
<path d="M2638 1198 c9 -9 15 -9 24 0 9 9 7 12 -12 12 -19 0 -21 -3 -12 -12z"/>
<path d="M7495 1016 c-63 -28 -105 -94 -105 -166 0 -75 35 -129 105 -161 175
-81 342 125 223 276 -45 58 -152 82 -223 51z m165 -71 c41 -21 60 -53 60 -100
0 -47 -19 -79 -60 -100 -53 -28 -120 -11 -154 37 -18 26 -21 90 -5 119 14 28
69 59 102 59 15 0 41 -7 57 -15z"/>
<path d="M7568 924 c-75 -40 -58 -148 25 -169 50 -13 117 39 117 90 0 28 -25
67 -51 81 -35 18 -57 17 -91 -2z m100 -46 c28 -28 7 -78 -33 -78 -27 0 -45 18
-45 45 0 27 18 45 45 45 12 0 26 -5 33 -12z"/>
<path d="M3800 740 l0 -220 250 0 250 0 -2 218 -3 217 -247 3 -248 2 0 -220z
m80 185 c19 -23 -15 -59 -41 -44 -22 11 -24 30 -7 47 16 16 33 15 48 -3z m271
-33 c73 -38 101 -86 96 -164 -6 -101 -88 -171 -203 -171 -167 0 -263 174 -161
290 67 77 173 95 268 45z"/>
<path d="M3852 905 c0 -16 2 -22 5 -12 2 9 2 23 0 30 -3 6 -5 -1 -5 -18z"/>
<path d="M3973 890 c-13 -5 -23 -12 -23 -16 0 -3 18 -26 40 -52 22 -25 38 -47
36 -49 -2 -3 -30 13 -61 33 -55 37 -58 38 -71 19 -20 -26 -33 -80 -27 -105 6
-24 2 -24 70 -4 30 9 57 14 59 11 3 -2 -18 -19 -46 -37 -30 -20 -50 -39 -48
-48 4 -22 48 -50 91 -58 l37 -6 1 43 c0 24 4 53 8 64 6 16 10 9 20 -32 17 -68
29 -78 73 -60 38 16 83 66 71 77 -4 4 -32 15 -61 25 -29 9 -51 20 -48 23 4 3
33 4 66 3 48 -2 61 1 66 14 10 25 -14 92 -39 110 -21 14 -23 13 -60 -30 -22
-25 -41 -44 -44 -41 -2 2 4 27 13 55 10 27 15 53 11 57 -11 12 -110 15 -134 4z
m94 -146 c7 -20 -17 -37 -34 -23 -15 13 -6 39 13 39 8 0 17 -7 21 -16z"/>
<path d="M4040 740 c0 -5 5 -10 10 -10 6 0 10 5 10 10 0 6 -4 10 -10 10 -5 0
-10 -4 -10 -10z"/>
<path d="M9707 933 c-4 -3 -7 -125 -7 -269 0 -250 1 -264 19 -274 21 -11 418
-15 445 -4 14 5 16 40 16 280 l0 274 -233 0 c-129 0 -237 -3 -240 -7z m421
-260 l2 -213 -185 0 -185 0 0 215 0 215 183 -2 182 -3 3 -212z m-168 -246 c0
-8 -3 -17 -7 -20 -9 -9 -34 13 -27 24 8 14 34 11 34 -4z"/>
<path d="M7636 658 c-11 -6 -46 -8 -87 -5 l-67 6 -26 -65 c-14 -35 -26 -68
-26 -73 0 -8 82 -41 102 -41 4 0 9 17 9 38 1 20 5 51 10 67 6 21 7 10 4 -38
-3 -52 -1 -68 8 -64 7 2 45 10 85 17 39 7 72 18 72 23 0 10 -50 128 -59 139
-3 4 -15 2 -25 -4z"/>
<path d="M3830 500 c0 -5 5 -10 10 -10 6 0 10 5 10 10 0 6 -4 10 -10 10 -5 0
-10 -4 -10 -10z"/>
<path d="M4240 500 c0 -5 5 -10 10 -10 6 0 10 5 10 10 0 6 -4 10 -10 10 -5 0
-10 -4 -10 -10z"/>
<path d="M7990 2479 c0 -20 4 -29 13 -27 18 7 20 45 3 51 -12 5 -16 -1 -16
-24z"/>
<path d="M8187 2503 c-13 -13 -7 -53 8 -53 10 0 15 10 15 30 0 29 -9 38 -23
23z"/>
<path d="M8069 2456 c-3 -4 -32 -10 -65 -14 -58 -7 -59 -8 -64 -42 -4 -20 -10
-42 -15 -50 -5 -7 -10 -67 -11 -132 l-2 -118 189 0 189 0 -6 53 c-3 28 -7 84
-8 122 -2 39 -9 91 -16 116 -13 46 -13 47 -64 52 -28 4 -67 9 -86 12 -19 4
-38 4 -41 1z m86 -21 c93 -19 144 -139 93 -215 -37 -53 -71 -73 -136 -78 -157
-11 -243 139 -144 250 27 30 109 61 142 53 8 -2 29 -6 45 -10z"/>
<path d="M8090 2415 c0 -8 2 -15 4 -15 2 0 6 7 10 15 3 8 1 15 -4 15 -6 0 -10
-7 -10 -15z"/>
<path d="M8167 2413 c-4 -3 -7 -13 -7 -22 1 -13 3 -13 11 2 11 19 8 33 -4 20z"/>
<path d="M8020 2401 c0 -5 5 -13 10 -16 6 -3 10 -2 10 4 0 5 -4 13 -10 16 -5
3 -10 2 -10 -4z"/>
<path d="M7960 2361 c0 -5 7 -11 15 -15 8 -3 15 -1 15 3 0 5 -7 11 -15 15 -8
3 -15 1 -15 -3z"/>
<path d="M8214 2355 c-10 -8 -14 -15 -8 -15 6 0 17 7 24 15 16 19 9 19 -16 0z"/>
<path d="M8140 2335 c-6 -8 -21 -17 -32 -21 -21 -6 -67 -52 -68 -66 0 -4 18 2
40 13 22 12 40 27 40 34 0 7 12 23 28 34 15 11 22 21 16 21 -6 0 -17 -7 -24
-15z"/>
<path d="M7948 2293 c6 -2 18 -2 25 0 6 3 1 5 -13 5 -14 0 -19 -2 -12 -5z"/>
<path d="M8228 2293 c6 -2 18 -2 25 0 6 3 1 5 -13 5 -14 0 -19 -2 -12 -5z"/>
<path d="M7965 2230 c-3 -5 -2 -10 4 -10 5 0 13 5 16 10 3 6 2 10 -4 10 -5 0
-13 -4 -16 -10z"/>
<path d="M8205 2230 c3 -5 14 -10 23 -10 15 0 15 2 2 10 -20 13 -33 13 -25 0z"/>
<path d="M8020 2185 c-8 -9 -8 -15 -2 -15 12 0 26 19 19 26 -2 2 -10 -2 -17
-11z"/>
<path d="M8150 2196 c0 -2 7 -9 15 -16 13 -11 14 -10 9 4 -5 14 -24 23 -24 12z"/>
<path d="M8091 2164 c0 -11 3 -14 6 -6 3 7 2 16 -1 19 -3 4 -6 -2 -5 -13z"/>
<path d="M7982 2083 c59 -2 158 -2 220 0 62 1 14 3 -107 3 -121 0 -172 -2
-113 -3z"/>
</g>
</svg>
